<?xml version="1.0" standalone="no"?>
<!DOCTYPE svg PUBLIC "-//W3C//DTD SVG 20010904//EN"
 "http://www.w3.org/TR/2001/REC-SVG-20010904/DTD/svg10.dtd">
<svg version="1.0" xmlns="http://www.w3.org/2000/svg"
 width="321.000000pt" height="320.000000pt" viewBox="0 0 321.000000 320.000000"
 preserveAspectRatio="xMidYMid meet">

<g transform="translate(0.000000,320.000000) scale(0.100000,-0.100000)"
fill="#000000" stroke="none">
<path d="M0 1600 c0 -1060 3 -1600 10 -1600 7 0 10 538 10 1595 l0 1595 1598
3 1597 2 -1607 3 -1608 2 0 -1600z"/>
<path d="M2083 2761 c-26 -21 -66 -58 -88 -81 -22 -23 -61 -60 -87 -82 l-48
-40 -25 20 c-36 28 -87 36 -129 18 -54 -23 -70 -57 -76 -160 l-5 -91 -209 0
-210 0 -24 48 c-58 111 -159 185 -283 207 -171 30 -344 -61 -417 -218 -24 -51
-27 -69 -27 -167 0 -105 2 -113 33 -172 31 -61 94 -134 140 -163 19 -13 50
-105 187 -555 91 -297 165 -543 165 -547 0 -5 -90 -8 -200 -8 l-200 0 0 -195
0 -195 850 0 850 0 0 195 0 195 -237 0 -238 0 -327 605 -326 605 26 55 27 55
213 0 212 0 0 -85 c0 -119 22 -158 97 -176 32 -7 47 -4 92 18 l53 25 82 -79
c44 -43 102 -98 128 -121 76 -67 84 -65 408 88 161 77 284 141 298 156 31 36
29 79 -7 115 -48 47 -72 41 -340 -82 l-241 -110 -44 38 c-24 21 -94 83 -154
138 l-111 100 0 99 -1 98 97 92 c54 50 123 115 154 144 l56 52 226 -104 c284
-130 285 -131 330 -112 49 20 66 71 40 123 -17 34 -35 44 -297 165 -325 149
-335 151 -413 89z m-1182 -426 c65 -34 88 -126 49 -190 -22 -36 -73 -65 -115
-65 -85 0 -157 103 -125 179 12 30 55 75 80 84 30 11 81 7 111 -8z m299 -987
c139 -260 267 -497 283 -526 l29 -53 -133 3 -133 3 -158 515 c-87 283 -158
518 -158 523 0 31 47 -50 270 -465z"/>
</g>
</svg>
